<svg xmlns="http://www.w3.org/2000/svg" fill="none" viewBox="0 0 127 38" height="38" width="127">
<g clip-path="url(#clip0_2678_12576)">
<path fill="#789904" d="M109.183 13.4015C109.164 13.3861 109.146 13.3738 109.124 13.3646C109.065 13.34 109.007 13.3338 108.942 13.3308C107.389 13.26 105.815 13.2139 104.263 13.1924C104.105 13.1924 103.92 13.1985 103.802 13.3277C103.713 13.4292 103.697 13.5676 103.685 13.669C103.53 15.0928 103.4 16.3752 103.369 17.6852L103.063 30.3949C103.051 30.9331 103.1 31.585 103.601 31.8433C103.765 31.9295 103.951 31.9479 104.127 31.9479C104.217 31.9479 104.306 31.9418 104.387 31.9356L108.218 31.6927C108.37 31.6834 108.555 31.6711 108.704 31.5666C108.939 31.4005 108.973 31.0899 108.973 30.7824C108.973 30.5118 108.942 30.2135 108.713 30.069C108.561 29.9736 108.37 29.9829 108.234 29.9921L104.804 30.1828C104.937 26.9876 105.033 23.7495 105.089 20.5513C105.825 20.5943 106.57 20.579 107.306 20.5082C107.556 20.4836 107.816 20.4467 108.036 20.3114C108.246 20.1823 108.441 19.9086 108.37 19.6195C108.289 19.2905 107.931 19.1152 107.337 19.106L105.24 19.0752C105.203 17.6114 105.253 16.1292 105.392 14.6715L108.515 14.8345C108.632 14.8407 108.769 14.8468 108.895 14.8038C109.239 14.6838 109.381 14.2718 109.294 13.6475C109.285 13.5768 109.269 13.4722 109.189 13.4015H109.183Z"></path>
<path fill="#789904" d="M100.153 13.101C99.8874 13.0026 99.5349 13.101 99.3184 13.3286C99.071 13.59 98.9844 13.9528 98.9164 14.3003C98.502 16.4314 98.4216 18.6609 98.3412 20.8166C98.3226 21.3179 98.3041 21.8161 98.2824 22.3112C98.1618 25.0235 98.0752 27.7819 98.0289 30.5035L98.0196 31.0355C98.0196 31.2261 98.0134 31.466 98.134 31.6597C98.2701 31.875 98.5484 32.0042 98.8824 32.0042C99.2102 32.0042 99.4885 31.8842 99.64 31.6782C99.7946 31.466 99.8039 31.1923 99.8101 30.974C99.8472 29.7808 99.8812 28.5876 99.9121 27.3945C100.033 23.0339 100.156 18.5256 100.54 14.1097C100.568 13.796 100.577 13.4393 100.339 13.2148C100.283 13.1625 100.221 13.1225 100.147 13.0979L100.153 13.101Z"></path>
<path fill="#789904" d="M95.6863 30.0592C95.5657 29.9916 95.4296 29.9547 95.2627 29.9485C95.0895 29.9424 94.9132 29.9701 94.7493 29.9977L91.3384 30.5882L91.3848 23.5183C91.4034 20.5662 91.425 17.5125 91.2302 14.5142C91.2117 14.2467 91.19 13.9115 91.0478 13.6255C90.9148 13.3579 90.621 13.0935 90.2747 13.1211C89.95 13.1427 89.749 13.3918 89.6562 13.5424C89.5078 13.7885 89.5139 13.976 89.5263 14.2128V14.2866C89.5541 14.9416 89.5696 15.5936 89.5882 16.2486V16.3316C89.6253 17.6816 89.6562 19.0593 89.6747 20.4247C89.7149 23.137 89.7211 25.8924 89.6933 28.6139C89.6809 29.7363 89.6655 30.8926 89.6407 32.055C89.6314 32.4548 89.7861 32.5778 89.9129 32.6086C89.9407 32.6147 89.9685 32.6178 89.9963 32.6178C90.0427 32.6178 90.0891 32.6086 90.1293 32.6024L95.943 31.5169C95.9986 31.5076 96.0821 31.4923 96.1409 31.4308C96.2275 31.3416 96.2089 31.2063 96.1996 31.1355C96.1409 30.6958 96.0358 30.2622 95.6832 30.0592H95.6863Z"></path>
<path fill="#789904" d="M126.572 30.6001C126.337 30.2281 125.823 30.2219 125.406 30.2619L123.232 30.4556L123.056 20.8734L124.93 20.7965C125.558 20.7719 125.916 20.5935 126.021 20.2583C126.13 19.917 125.882 19.5633 125.579 19.4157C125.279 19.2681 124.933 19.2743 124.63 19.2804L123.309 19.305C123.229 19.305 123.136 19.305 123.093 19.2558C123.053 19.2128 123.053 19.1359 123.056 19.059L123.201 14.9506C123.204 14.8552 123.21 14.763 123.263 14.7107C123.319 14.6523 123.433 14.6492 123.529 14.6492L125.165 14.6553C125.48 14.6553 125.845 14.6553 126.161 14.4954C126.47 14.3355 126.717 13.945 126.581 13.5944C126.42 13.1793 125.891 13.1116 125.511 13.0962C124.58 13.0562 123.619 13.0163 122.672 13.0901H122.626C122.199 13.127 121.404 13.1854 121.395 13.7297C121.389 14.1141 121.392 14.5016 121.395 14.8891C121.395 15.1597 121.398 15.4272 121.395 15.6978L121.327 31.4181C121.327 31.5442 121.327 31.7041 121.401 31.8394C121.537 32.0762 121.831 32.1254 122.088 32.1254C122.14 32.1254 122.193 32.1254 122.239 32.1193L125.115 31.9501C125.465 31.9286 125.901 31.904 126.241 31.6826C126.507 31.5104 126.68 31.1906 126.665 30.9046C126.658 30.797 126.627 30.6986 126.572 30.6094V30.6001Z"></path>
<path fill="#789904" d="M115.93 20.0568C116.62 19.4202 116.96 18.4792 117.047 17.5474C117.164 16.2743 116.79 14.8936 115.807 14.0694C115.015 13.4052 113.933 13.1807 112.897 13.1622C112.603 13.1561 112.294 13.1715 112.04 13.3191C111.635 13.5559 111.716 13.9464 111.709 14.34C111.703 14.869 111.694 15.3979 111.688 15.9268L111.641 19.0973C111.61 21.2131 111.579 23.3257 111.549 25.4414C111.524 27.1974 111.499 28.9502 111.471 30.7061C111.465 31.1766 111.505 31.7394 111.913 31.9793C112.09 32.0838 112.303 32.1023 112.507 32.1115C113.964 32.1761 115.482 31.8347 116.617 30.9214C117.492 30.2172 118.092 29.2085 118.42 28.1353C118.748 27.062 118.819 25.9273 118.757 24.8079C118.704 23.8239 118.547 22.8275 118.098 21.948C117.653 21.0685 116.886 20.312 115.93 20.0568ZM113.277 19.6755L113.348 14.7521C114.131 14.8044 114.656 15.0043 114.913 15.3395C115.201 15.7208 115.346 16.3204 115.346 17.1231C115.346 18.0487 115.136 18.7099 114.715 19.085C114.335 19.4295 113.852 19.6263 113.277 19.6755ZM117.149 25.2846C117.149 27.1451 116.75 28.4859 115.964 29.27C115.222 30.0111 114.273 30.4601 113.15 30.6077L113.351 21.1977C115.859 21.3391 117.102 22.6799 117.152 25.2877L117.149 25.2846Z"></path>
<path fill="#006548" d="M42.8567 20.4285C43.9452 19.1369 44.3998 17.3225 44.0442 15.6742C43.8741 14.8809 43.5525 14.2566 43.0856 13.8168C42.3496 13.1218 41.2147 12.842 39.6159 12.9589C39.4335 12.9712 39.2572 12.9927 39.1057 13.088C38.8645 13.2387 38.8614 13.5216 38.8583 13.7584C38.8552 13.9552 38.8552 14.152 38.8552 14.3488C38.8552 14.4626 38.8552 14.5795 38.8552 14.6933C38.8521 15.3145 38.8459 15.9356 38.8397 16.5568C38.8243 17.793 38.8026 19.0477 38.7717 20.2809C38.7098 22.7502 38.6171 25.2534 38.4903 27.729C38.4315 28.9129 38.3635 30.1153 38.2893 31.2992C38.2831 31.3792 38.2769 31.4899 38.3264 31.5883C38.379 31.6929 38.4841 31.7544 38.5892 31.8036C39.1088 32.0496 39.6839 32.1664 40.2684 32.1664C41.4466 32.1664 42.6743 31.6867 43.5989 30.798C44.7864 29.654 45.4914 27.8796 45.5254 25.9238C45.5471 24.7522 45.3461 23.6882 44.9255 22.7656C44.4647 21.757 43.735 20.9328 42.8598 20.4316L42.8567 20.4285ZM41.3971 21.6063C41.9568 21.6063 42.5166 21.9753 43.0577 22.698C43.6143 23.4391 43.8958 24.46 43.8958 25.7301C43.8958 26.1944 43.8432 26.6096 43.7442 26.9602C43.7442 26.9602 43.7442 26.9632 43.7442 26.9663C43.2402 29.4695 41.9816 30.6934 39.9004 30.7119C39.9004 30.7119 39.8973 30.7119 39.8942 30.7088C40.0859 25.4933 40.2189 22.4335 40.29 21.6093H41.3971V21.6063ZM40.7632 14.4842C41.9599 14.5672 42.566 15.3206 42.6155 16.7875C42.6155 17.464 42.43 18.1682 42.062 18.8847C41.7125 19.5674 41.2363 19.8965 40.6147 19.8965H40.287C40.287 18.2236 40.3302 16.4092 40.4106 14.5026L40.7663 14.4842H40.7632Z"></path>
<path fill="#006548" d="M50.0337 13.1086C49.9842 13.0809 49.9347 13.0594 49.879 13.044C49.3564 12.9087 48.9884 13.4991 48.8338 14.0434C48.7565 14.311 48.7194 14.5847 48.6854 14.8645C48.4164 16.9833 48.305 19.1513 48.2123 21.1871C48.0669 24.4529 47.9618 27.7618 47.8937 31.0215C47.8937 31.1722 47.8876 31.3475 47.9463 31.5074C48.0731 31.8487 48.4411 32.0179 48.7874 32.0179C48.8524 32.0179 48.9142 32.0117 48.9761 31.9994C49.1523 31.9656 49.3039 31.8918 49.4121 31.7903C49.6533 31.5627 49.6842 31.2122 49.6966 30.8739C49.743 29.5116 49.7801 28.1247 49.8141 26.7808C49.9223 22.7124 50.0337 18.5086 50.4202 14.3909C50.4449 14.1388 50.4697 13.8805 50.4017 13.6283C50.3429 13.4038 50.2037 13.2101 50.0275 13.1086H50.0337Z"></path>
<path fill="#006548" d="M76.7981 13.3903C76.7981 13.3903 76.7765 13.375 76.7641 13.3719C76.6992 13.3411 76.625 13.3381 76.5724 13.335C75.0262 13.2643 73.4522 13.2181 71.8998 13.1997C71.739 13.1966 71.5566 13.2058 71.4391 13.335C71.3494 13.4365 71.3339 13.5718 71.3216 13.6732L71.2721 14.1161C71.1577 15.1555 71.0401 16.2287 71.0123 17.2958L70.6969 30.3992C70.6845 30.9373 70.734 31.5862 71.235 31.8476C71.3989 31.9337 71.5844 31.9552 71.7607 31.9552C71.8503 31.9552 71.94 31.949 72.0204 31.946L75.8488 31.703C75.9972 31.6938 76.1859 31.6815 76.3312 31.5769C76.5662 31.4109 76.6002 31.1003 76.6002 30.7928C76.6002 30.5222 76.5693 30.2239 76.3405 30.0793C76.1889 29.984 75.9972 29.9932 75.8581 30.0025L72.4286 30.1931C72.5616 26.9949 72.6575 23.7568 72.7131 20.5617C73.4522 20.6047 74.1975 20.5924 74.9304 20.5186C75.1808 20.494 75.4406 20.4571 75.6602 20.3249C75.8704 20.1957 76.0653 19.922 75.9941 19.6329C75.9137 19.3039 75.555 19.1255 74.9582 19.1163L72.8616 19.0856C72.8244 17.6218 72.8739 16.1395 73.0162 14.6819L76.1426 14.8449C76.2632 14.851 76.4023 14.8572 76.5322 14.8111C76.8538 14.6942 76.9899 14.316 76.9342 13.7255C76.9218 13.6056 76.9002 13.4734 76.7889 13.3965L76.7981 13.3903Z"></path>
<path fill="#006548" d="M59.1971 13.1219C59.0579 13.0942 58.9095 13.0942 58.7765 13.0942C57.1932 13.1127 55.5913 13.1988 54.0142 13.3526C53.5875 13.3956 53.1453 13.4602 52.8391 13.7462C52.6536 13.9184 52.5577 14.2075 52.5979 14.4658C52.6289 14.6657 52.7371 14.8194 52.901 14.8963C53.0803 14.9824 53.2875 14.9609 53.4514 14.9424L55.4924 14.7302C55.3718 19.9457 55.2172 25.2381 55.0285 30.4629C55.0162 30.7611 55.0038 31.0994 55.1306 31.4039C55.2697 31.7452 55.5913 31.9666 55.9377 31.9666C55.9501 31.9666 55.9655 31.9666 55.9779 31.9666C56.2995 31.9512 56.5407 31.6314 56.6489 31.3608C56.7695 31.0564 56.7726 30.7181 56.7788 30.4198C56.8407 25.1582 56.9891 19.8197 57.2148 14.5519C57.4839 14.5088 57.7653 14.5426 58.0405 14.5795C58.1147 14.5888 58.1858 14.598 58.257 14.6042C58.5786 14.638 59.0455 14.6564 59.4012 14.4135C59.596 14.2813 59.7351 14.0506 59.7599 13.8108C59.7815 13.6232 59.7258 13.4479 59.6083 13.3249C59.5063 13.2172 59.3733 13.1496 59.194 13.1158L59.1971 13.1219Z"></path>
<path fill="#006548" d="M85.5783 30.316C84.8671 27.8159 84.0661 25.3066 83.1941 22.8587C84.2239 21.9515 84.9444 20.7153 85.2227 19.3745C85.5041 18.0153 85.3278 16.5792 84.7279 15.3276C84.363 14.5711 83.8992 14.0176 83.3487 13.6854C82.4457 13.1411 81.3077 13.1719 80.3893 13.1965C80.145 13.2026 79.8667 13.2119 79.6193 13.3287C79.1462 13.5532 79.1833 14.0176 79.2142 14.4266C79.2204 14.5157 79.2297 14.608 79.2297 14.6941C79.242 15.3153 79.2482 15.9365 79.2544 16.5577C79.2668 17.7816 79.2668 19.0363 79.2575 20.2848C79.2389 22.6557 79.1864 25.162 79.0936 27.739C79.0565 28.8338 79.0101 29.9747 78.9575 31.1279C78.9483 31.3401 78.9359 31.6045 79.0627 31.8259C79.1926 32.0535 79.4616 32.1857 79.7399 32.1857C79.8543 32.1857 79.9749 32.1642 80.0863 32.115C80.4017 31.9797 80.6491 31.6752 80.7666 31.2755C80.8686 30.928 80.8686 30.5651 80.8655 30.2145L80.8284 23.6798L81.5799 23.5722C82.5756 26.183 83.4075 28.883 84.0538 31.6045C84.0723 31.6875 84.1033 31.8106 84.2053 31.8782C84.2981 31.9397 84.4094 31.9336 84.5115 31.9182C84.9011 31.8659 85.334 31.7798 85.5536 31.4415C85.6494 31.2909 85.6927 31.1156 85.6835 30.8972C85.6742 30.7004 85.6247 30.5005 85.5721 30.316H85.5783ZM80.9026 18.4243C80.9026 17.8062 80.8965 17.1819 80.8841 16.5638C80.8779 16.2532 80.8686 15.9426 80.8594 15.632C80.8532 15.4844 80.8501 15.3337 80.8439 15.1861C80.8439 15.1585 80.8377 15.1185 80.8315 15.0693C80.8223 14.9955 80.7975 14.8202 80.8192 14.7833C80.8253 14.7771 80.8563 14.7771 80.8717 14.7771H80.9057C81.2583 14.7556 81.6232 14.7341 81.9664 14.8202C82.5292 14.9647 83.0364 15.4198 83.324 16.041C83.5528 16.5331 83.661 17.1296 83.6641 17.9138C83.6672 18.7564 83.5621 19.5314 83.3456 20.2202C83.1137 20.9675 82.7612 21.481 82.3035 21.7486C81.852 22.013 81.3078 22.0438 80.8192 22.0284C80.8841 21.3703 80.9057 18.4551 80.9057 18.4212L80.9026 18.4243Z"></path>
<path fill="#006548" d="M68.6121 13.3443C68.575 13.3228 68.5409 13.3043 68.5038 13.2889C68.2224 13.1659 67.8915 13.1752 67.6287 13.1813L61.8954 13.3381C61.679 13.3443 61.4347 13.3504 61.2151 13.4427C60.9646 13.5442 60.8007 13.7687 60.7791 14.0301C60.7605 14.2945 60.8904 14.5375 61.1285 14.6789C61.3605 14.8173 61.648 14.8265 61.88 14.8327L63.856 14.8942L63.4045 30.2209C63.3921 30.6237 63.3767 31.1742 63.6674 31.5832C63.8282 31.8108 64.1312 31.9614 64.4188 31.9614H64.4281C64.6538 31.9614 64.8394 31.8661 64.9507 31.7C65.0775 31.5125 65.0837 31.2757 65.0899 31.0881L65.5661 14.7896L68.1791 14.5528C68.4327 14.5282 68.7172 14.4883 68.8811 14.2761C68.9708 14.1592 69.0017 14.0085 68.9708 13.8486C68.9306 13.6457 68.7945 13.4519 68.6121 13.3443Z"></path>
<path fill="#006548" d="M17.0253 2.54623C17.4791 1.70323 17.1597 0.654018 16.312 0.202761C15.4643 -0.248497 14.4092 0.069077 13.9554 0.912082C13.5017 1.75509 13.821 2.80429 14.6687 3.25555C15.5164 3.70681 16.5715 3.38923 17.0253 2.54623Z"></path>
<path fill="#006548" d="M20.2762 13.3077L22.4717 16.0908L22.515 16.1492C23.8138 17.7391 24.5282 19.741 24.5282 21.7922C24.5282 26.7309 20.4895 30.7471 15.5325 30.7471H15.5015H15.4613C10.495 30.7471 6.45635 26.7309 6.45635 21.7922C6.45635 19.7441 7.17069 17.7391 8.46948 16.1492L10.7084 13.3108C10.6558 13.2924 10.6032 13.2708 10.5506 13.2524C10.1548 13.1202 9.72499 13.0156 9.27968 12.9541L7.45518 15.2697C7.43972 15.2912 7.42426 15.3128 7.4088 15.3343C5.93064 17.1579 5.11426 19.452 5.11426 21.7983C5.11426 27.4751 9.759 32.0909 15.4644 32.0909H15.5294C21.2379 32.0909 25.8795 27.472 25.8795 21.7983C25.8795 19.452 25.0662 17.1579 23.585 15.3343C23.5695 15.3128 23.5541 15.2912 23.5386 15.2728L21.7141 12.9572C21.2688 13.0218 20.8421 13.1232 20.4432 13.2555C20.3906 13.2739 20.338 13.2954 20.2854 13.3139L20.2762 13.3077Z"></path>
<path fill="#006548" d="M11.5687 12.2064L15.465 7.26148C15.465 7.26148 15.4991 7.2461 15.5114 7.26148L19.4109 12.2064C19.6057 12.1264 19.8005 12.0495 20.0046 11.9819C20.252 11.8989 20.5056 11.825 20.7716 11.7635L16.5721 6.43733C16.3093 6.10521 15.9165 5.91455 15.4898 5.91455C15.063 5.91455 14.6703 6.10521 14.4075 6.43733L10.208 11.7635C10.4709 11.825 10.7275 11.8989 10.9749 11.9819C11.179 12.0495 11.3769 12.1264 11.5717 12.2094L11.5687 12.2064Z"></path>
<path fill="#789904" d="M29.1126 14.7325C26.7191 11.645 23.3701 11.153 20.7694 11.7618C20.5065 11.8233 20.2499 11.8971 20.0025 11.9802C19.7984 12.0478 19.6005 12.1247 19.4087 12.2047C17.6244 12.9489 16.2483 14.2097 15.4876 15.7411C14.7269 14.2097 13.3539 12.9489 11.5665 12.2047C11.3717 12.1247 11.1738 12.0478 10.9697 11.9771C10.7223 11.8941 10.4687 11.8203 10.2028 11.7588C7.60207 11.1499 4.25303 11.6419 1.85953 14.7294C0.106155 17.0019 -0.431918 19.9695 0.350453 23.0847C1.78531 28.8014 7.34231 34.3306 15.2124 37.8732L15.4907 37.9993L15.769 37.8732C23.6391 34.3306 29.193 28.8014 30.631 23.0847C31.4133 19.9695 30.8753 17.0019 29.1157 14.7325H29.1126ZM29.3229 22.7618C28.0025 28.0203 22.8413 33.1497 15.4907 36.5293C8.14014 33.1497 2.97897 28.0203 1.65853 22.7618C0.968927 20.0125 1.40804 17.5186 2.93258 15.5505C4.45712 13.5823 6.44552 12.8751 8.26693 12.8751C8.61018 12.8751 8.94725 12.9027 9.27504 12.9489C9.72034 13.0134 10.1471 13.1149 10.546 13.2472C10.6017 13.2656 10.6511 13.2871 10.7037 13.3056C13.1993 14.2066 14.8073 16.2547 14.8197 18.5672L14.8444 19.991L13.5858 18.7394C13.323 18.475 12.89 18.478 12.6272 18.7394C12.3643 19.0008 12.3612 19.4313 12.6272 19.6927L14.8444 21.9007V24.4439L13.5858 23.1923C13.323 22.9309 12.89 22.9309 12.6272 23.1923C12.3643 23.4537 12.3612 23.8842 12.6272 24.1456L14.8444 26.3536V27.9865C14.8444 28.3401 15.1134 28.6261 15.4722 28.6538H15.4938H15.5154C15.8742 28.6261 16.1432 28.3401 16.1432 27.9865V26.3536L18.3604 24.1456C18.6233 23.8811 18.6233 23.4537 18.3604 23.1923C18.0976 22.9309 17.6646 22.9309 17.4018 23.1923L16.1432 24.4439V21.9007L18.3604 19.6927C18.6233 19.4283 18.6233 19.0008 18.3604 18.7394C18.0945 18.478 17.6646 18.478 17.4018 18.7394L16.1432 19.991L16.1679 18.5672C16.1772 16.2547 17.7883 14.2066 20.2839 13.3056C20.3365 13.2871 20.389 13.2656 20.4416 13.2472C20.8374 13.1149 21.2673 13.0104 21.7126 12.9489C23.7752 12.6567 26.2429 13.2133 28.055 15.5505C29.5796 17.5186 30.0187 20.0125 29.3291 22.7618H29.3229Z"></path>
</g>
<defs>
<clipPath id="clip0_2678_12576">
<rect fill="white" height="38" width="126.667"></rect>
</clipPath>
</defs>
</svg>
