<svg xml:space="preserve" style="enable-background:new 0 0 299.8 32.3;" viewBox="0 0 299.8 32.3" y="0px" x="0px" xmlns:xlink="http://www.w3.org/1999/xlink" xmlns="http://www.w3.org/2000/svg" id="Layer_1" version="1.1">
<path fill="white" d="M28,31.5V7.7H28l-11.2,9.7L5.3,7.7H5.2v23.8H0V0.8h6.4l10.3,9l10.3-9h6.3v30.7L28,31.5L28,31.5z M77.3,22.7
	c-0.8,2-1.9,3.7-3.4,5.1c-1.5,1.4-3.2,2.5-5.2,3.3c-2,0.8-4.2,1.2-6.6,1.2c-2.4,0-4.6-0.4-6.6-1.1c-2-0.8-3.7-1.8-5.2-3.3
	c-1.4-1.4-2.6-3.1-3.4-5.1s-1.2-4.2-1.2-6.6c0-2.4,0.4-4.7,1.2-6.7c0.8-2,2-3.7,3.4-5.1s3.2-2.5,5.2-3.3c2-0.8,4.2-1.2,6.6-1.2
	c2.4,0,4.6,0.3,6.6,1.1s3.7,1.8,5.2,3.2c1.5,1.4,2.6,3.1,3.4,5.1c0.8,2,1.2,4.2,1.2,6.7C78.6,18.5,78.1,20.7,77.3,22.7 M72,11.7
	c-0.5-1.3-1.2-2.5-2.2-3.5c-0.9-1-2.1-1.8-3.4-2.3S63.7,5,62.1,5s-3,0.3-4.3,0.8c-1.3,0.6-2.4,1.3-3.3,2.3c-0.9,1-1.7,2.2-2.2,3.5
	c-0.5,1.3-0.8,2.8-0.8,4.3c0,1.7,0.2,3.2,0.8,4.6s1.2,2.6,2.2,3.6s2,1.8,3.3,2.4c1.3,0.6,2.8,0.9,4.3,0.9c1.6,0,3.1-0.3,4.4-0.9
	s2.4-1.4,3.4-2.4c0.9-1,1.7-2.2,2.2-3.6s0.8-2.9,0.8-4.6C72.8,14.4,72.5,13,72,11.7 M109.8,5.6c-1.1-0.4-2.1-0.6-3.2-0.6
	c-1.6,0-3.1,0.3-4.3,0.8c-1.3,0.6-2.4,1.3-3.3,2.3c-0.9,1-1.7,2.2-2.2,3.5C96.2,13,96,14.4,96,15.9c0,1.7,0.2,3.2,0.8,4.6
	s1.2,2.6,2.2,3.6s2,1.8,3.3,2.4c1.3,0.6,2.8,0.9,4.3,0.9c1.2,0,2.5-0.3,3.7-0.9s2.3-1.5,3.3-2.8l4.5,3.2c-1.4,1.9-3.1,3.3-5.1,4.2
	c-2,0.9-4.2,1.3-6.4,1.3c-2.4,0-4.6-0.4-6.6-1.1c-2-0.8-3.7-1.8-5.2-3.3c-1.4-1.4-2.6-3.1-3.4-5.1s-1.2-4.2-1.2-6.6
	c0-2.4,0.4-4.7,1.2-6.7c0.8-2,1.9-3.7,3.4-5.1C96.3,3,98,1.9,100,1.2c2-0.8,4.2-1.2,6.6-1.2c2.1,0,4,0.4,5.8,1.1
	c1.8,0.7,3.5,2,5,3.8L113.1,8C112,6.8,110.9,6,109.8,5.6 M157.2,31.5h-7.7L136,16.4h-0.3v15.1h-5.5V0.8h5.5v13h0.3l12.8-13h7.4
	L141.7,15L157.2,31.5z M185.7,16.1c0.8,0.4,1.5,1,2.1,1.6c0.6,0.7,1,1.4,1.4,2.2c0.3,0.8,0.5,1.8,0.5,2.8c0,1.7-0.3,3.1-1,4.2
	s-1.6,2-2.6,2.7s-2.3,1.2-3.8,1.4s-2.9,0.4-4.3,0.4h-11.1V0.8h12.1c1.2,0,2.3,0.1,3.4,0.4c1.1,0.3,2.1,0.7,3,1.3
	c0.9,0.6,1.6,1.4,2.2,2.4c0.6,1,0.8,2.2,0.8,3.6c0,1.7-0.5,3.2-1.5,4.3s-2.3,1.9-3.9,2.4v0.1C184,15.5,184.9,15.7,185.7,16.1
	 M181.5,6.5c-0.9-0.7-2.5-1-4.6-1h-4.5v7.8h5c1.8,0,3.2-0.3,4.1-1.1s1.4-1.6,1.4-2.8C182.9,8.1,182.4,7.1,181.5,6.5 M182.6,18.9
	c-1.1-0.6-2.7-1-5-1h-5.3v8.8h5.1c0.7,0,1.4-0.1,2.2-0.1c0.8-0.1,1.5-0.3,2.2-0.6c0.7-0.3,1.2-0.8,1.7-1.4c0.4-0.6,0.7-1.4,0.7-2.4
	C184.2,20.7,183.7,19.6,182.6,18.9 M224.5,26.6v4.9h-21.3V0.8h20.5v4.9h-15v7.5h14.2v4.9h-14.2v8.3H224.5z M252.5,17.9l8.2,13.6H254
	l-7.2-13h-4v13h-5.5V0.8h10.8c1.5,0,2.9,0.1,4.3,0.4c1.4,0.3,2.6,0.7,3.7,1.4c1.1,0.7,1.9,1.6,2.6,2.7c0.6,1.1,1,2.6,1,4.3
	c0,2.2-0.6,4.1-1.9,5.6C256.5,16.7,254.8,17.6,252.5,17.9 M253.3,7.4c-0.4-0.6-0.9-1-1.5-1.2c-0.6-0.3-1.3-0.5-2-0.5
	c-0.7-0.1-1.5-0.1-2.2-0.1h-4.8v8.3h4.3c0.8,0,1.6,0,2.4-0.1c0.8-0.1,1.5-0.2,2.2-0.5c0.6-0.3,1.2-0.7,1.6-1.3s0.6-1.3,0.6-2.4
	C253.9,8.7,253.7,8,253.3,7.4 M287.9,18.5v-4.9h11.8v15.7c-3.8,2-8.1,3-12.8,3c-2.4,0-4.6-0.4-6.6-1.1c-2-0.8-3.7-1.8-5.2-3.3
	c-1.4-1.4-2.6-3.1-3.4-5.1s-1.2-4.2-1.2-6.6c0-2.4,0.4-4.7,1.2-6.7c0.8-2,2-3.7,3.4-5.1s3.2-2.5,5.2-3.3c2-0.8,4.2-1.2,6.6-1.2
	c2.4,0,4.6,0.3,6.6,0.8c2.1,0.6,3.9,1.6,5.5,3l-4.1,4.1c-1-0.9-2.2-1.7-3.6-2.2C290.1,5.2,288.6,5,287,5c-1.6,0-3,0.3-4.4,0.8
	c-1.3,0.6-2.4,1.3-3.3,2.3c-0.9,1-1.6,2.2-2.2,3.5c-0.5,1.3-0.8,2.8-0.8,4.3c0,1.7,0.2,3.2,0.8,4.6s1.2,2.6,2.2,3.6s2,1.8,3.3,2.4
	c1.3,0.6,2.8,0.9,4.4,0.9c1.4,0,2.7-0.1,4-0.4c1.2-0.3,2.3-0.7,3.3-1.2v-7.2L287.9,18.5L287.9,18.5z"></path>
</svg>
