<svg width="170" height="40" viewBox="0 0 170 40" fill="none" xmlns="http://www.w3.org/2000/svg">
<path d="M0 16.2572L10.2872 13.7314V18.8266C12.5367 16.1166 16.0756 14.4635 19.474 14.4635C25.626 14.4635 28.6608 19.0544 28.6608 25.347V38.9405H29.7612V39.6725H18.3735V38.9405H19.474V25.2549C19.474 19.8834 17.3167 18.3176 14.4661 18.3176C12.813 18.3176 11.3877 18.7781 10.2872 19.7428V38.9405H11.3877V39.6725H0V38.9405H1.10047V16.7129L0 16.9892V16.2524V16.2572Z" fill="#61402E"/>
<path d="M31.6181 26.3655C31.6181 18.5119 37.4501 14.7451 44.7074 14.7451C51.9647 14.7451 57.7967 18.5119 57.7967 26.3655V27.3739H40.8049V28.4744C40.8049 34.3549 42.0459 39.2658 46.5884 39.2658C56.7399 39.2658 63.2603 28.1495 63.2603 17.7702V16.7134L62.1598 16.9897V16.2528L72.4471 13.7271V17.998C74.6529 15.7923 77.7749 14.4639 80.8097 14.4639C84.4359 14.4639 86.9617 16.0734 88.4354 18.6913C91.3733 15.9813 95.6443 14.4639 98.8584 14.4639C105.015 14.4639 108.045 19.0549 108.045 25.3475V38.941H109.146V39.673H97.7531V38.941H98.8536V25.2554C98.8536 19.8839 96.6963 18.318 93.8505 18.318C92.241 18.318 90.3164 18.8707 88.9348 19.6512C89.628 21.3043 89.9916 23.2338 89.9916 25.3475V38.941H91.0921V39.673H79.7044V38.941H80.8049V25.2554C80.8049 19.8839 78.6475 18.318 75.797 18.318C74.5123 18.318 73.3633 18.5943 72.4422 19.1906V38.941H73.5427V39.673H62.155V38.941H63.2555V27.0927C60.8655 34.03 55.5376 39.9978 46.0309 39.9978C37.7167 39.9978 31.6084 36.7352 31.6084 28.3774V26.3558L31.6181 26.3655ZM40.8049 26.2734V26.6418H48.61V26.2734C48.61 18.924 48.0573 15.482 44.7074 15.482C41.3575 15.482 40.8049 18.924 40.8049 26.2734Z" fill="#61402E"/>
<path d="M125.502 25.1244C126.239 25.1244 126.884 25.1729 127.432 25.2165V21.5418C127.432 16.9509 126.695 15.2056 123.481 15.2056C121.779 15.2056 119.806 15.5741 118.109 16.1704C120.131 16.5388 121.643 18.284 121.643 20.4414C121.643 22.875 119.714 24.8045 117.28 24.8045C114.846 24.8045 112.917 22.875 112.917 20.4414C112.917 15.7583 119.99 14.4688 123.481 14.4688C130.597 14.4688 136.614 16.214 136.614 24.8481V38.9458H137.714V39.6778H127.427V35.911C125.177 38.1604 122.147 39.9978 117.92 39.9978C112.592 39.9978 110.343 37.472 110.343 34.6263C110.343 27.7374 121.042 25.1196 125.497 25.1196L125.502 25.1244ZM122.424 36.2843C124.033 36.2843 125.822 35.8237 127.432 34.9511V25.9486C127.02 25.9049 126.511 25.8128 126.05 25.8565C121.643 26.0407 119.53 28.8864 119.53 32.4254C119.53 34.859 120.034 36.2843 122.424 36.2843Z" fill="#61402E"/>
<path d="M140.226 2.5282L150.513 0.00244141V18.8753C152.762 16.1653 156.301 14.5122 159.695 14.5122C165.851 14.5122 168.881 19.1032 168.881 25.3957V38.9892H169.982V39.7213H158.589V38.9892H159.69V25.3036C159.69 19.9321 157.532 18.3711 154.687 18.3711C153.034 18.3711 151.608 18.8317 150.508 19.7916V38.9892H151.608V39.7213H140.216V38.9892H141.316V2.98875L140.216 3.26508V2.53304L140.226 2.5282Z" fill="#61402E"/>
<path d="M50.4324 10.5371H39.0156V11.6424H50.4324V10.5371Z" fill="#61402E"/>
</svg>
