<?xml version="1.0" encoding="UTF-8"?><svg id="Layer_2" xmlns="http://www.w3.org/2000/svg" viewBox="0 0 321.31 40.82"><defs><style>.cls-1{fill:#fff;}</style></defs><g id="Layer_1-2"><path class="cls-1" d="M321.31,40.82l-3.12-3.27-10.47-19.45c.26-.09.51-.17.76-.25l1.68-.48c4.72-1.78,7.74-4.37,7.74-8.81C317.9,3.67,313.92,0,308.6,0h-16.68l3.12,3.27v34.29l-3.12,3.27h9.7l-3.12-3.27v-9.8c.21-4.09,4.73-7.91,8.79-9.5l10.37,19.24-3.18,3.32h6.81ZM298.51,25.78V.41h5.66c7.8.18,10.21,5.02,10.21,8.34s-2.72,6.4-6.76,8.68c-3.52,1.98-7.65,3.72-9.11,8.35Z"/><polygon class="cls-1" points="98.17 0 95.75 8.22 103.66 .41 109.89 .41 109.89 37.56 106.77 40.82 116.47 40.82 113.35 37.56 113.35 .41 119.58 .41 127.55 8.22 125.12 0 98.17 0"/><polygon class="cls-1" points="132.72 40.71 133.13 40.82 149.47 .12 149.07 0 132.72 40.71"/><path class="cls-1" d="M78.99,17.09c-3.7-1.75-10.11-5.71-10.11-10.5,0-3.67,3.64-6.18,8.03-6.18,2.54,0,5.02.82,7.28,2.28l5.49,6.53-1.04-9.21h-11.84c-4.73,0-8.78,2.97-8.78,7.93,0,7.52,6.58,11.78,10.74,13.88,4.68,2.39,11.49,6.18,11.49,11.14,0,4.49-4.39,7.46-9.53,7.46-1.91,0-4.56-.35-7.45-2.22l-6.01-6.88,1.33,9.51h12.13c6.01,0,10.57-3.79,10.57-9.51,0-7.93-5.14-10.85-12.3-14.23Z"/><polygon class="cls-1" points="43.83 0 42.21 0 42.21 5.89 32.69 33.67 26.16 40.42 6.58 40.42 6.58 3.27 9.7 0 0 0 3.12 3.27 3.12 37.56 0 40.82 31.01 40.82 33.39 33.03 42.44 6.47 54.45 37.56 51.33 40.82 61.32 40.82 58.2 37.56 43.83 0"/><polygon class="cls-1" points="248.03 3.27 237.69 18.53 226.89 3.27 230.01 0 219.79 0 222.91 3.27 234.4 20.33 234.4 37.56 231.28 40.82 240.98 40.82 237.87 37.79 237.87 19.64 248.55 3.32 251.67 0 244.85 0 248.03 3.27"/><polygon class="cls-1" points="265.01 40.24 265.01 16.68 279.06 17.06 279.06 15.98 265.01 16.1 265.01 .58 278.17 .58 285.28 7.93 282.85 0 279.06 0 261.47 0 258.42 0 261.54 3.27 261.54 37.56 258.42 40.82 262.44 40.82 262.43 40.82 283.81 40.82 286.24 32.89 279.13 40.24 265.01 40.24"/><polygon class="cls-1" points="205.33 0 203.71 0 203.71 5.89 194.19 33.67 187.66 40.42 168.08 40.42 168.08 3.27 171.2 0 161.5 0 164.62 3.27 164.62 37.56 161.5 40.82 192.51 40.82 194.88 33.08 203.94 6.47 215.95 37.56 212.83 40.82 222.82 40.82 219.7 37.56 205.33 0"/><polygon class="cls-1" points="24.61 8.66 24.28 8.66 24.27 12.49 20.82 12.47 20.83 9.75 20.5 9.75 20.49 12.47 18.25 12.46 18.27 8.63 17.94 8.63 17.92 13.38 24.59 13.41 24.61 8.66"/><polygon class="cls-1" points="18.19 27.59 24.52 27.62 24.53 26.7 18.19 26.67 18.2 24.2 17.87 24.19 17.84 30.07 18.18 30.08 18.19 27.59"/><polygon class="cls-1" points="24.56 20.58 20.33 20.56 20.35 17.06 24.57 17.07 24.57 16.75 17.9 16.72 17.9 17.04 20.03 17.05 20.01 20.56 17.88 20.55 17.88 21.48 24.55 21.51 24.56 20.58"/></g></svg>