<?xml version="1.0" encoding="UTF-8"?>
<svg width="209px" height="64px" viewBox="0 0 209 64" version="1.1" xmlns="http://www.w3.org/2000/svg" xmlns:xlink="http://www.w3.org/1999/xlink">
    <title>Branding / Logo</title>
    <g id="Symbols" stroke="none" stroke-width="1" fill="none" fill-rule="evenodd">
        <g id="Component-/-Navigation-/-1920" transform="translate(-142.000000, -64.000000)" fill="#FFFFFF">
            <g id="Branding-/-Logo" transform="translate(142.500000, 64.000000)">
                <path d="M89.3244285,49.3661806 C90.4241575,49.3661806 91.2658251,49.6779232 91.8500562,50.3007848 C92.4336624,50.9242699 92.7260903,51.8052544 92.7260903,52.9431148 L92.7260903,60.4224423 C92.7260903,61.5609262 92.4336624,62.4419107 91.8500562,63.0647723 C91.2658251,63.6882574 90.4241575,64 89.3244285,64 C88.2246994,64 87.3817821,63.6882574 86.7988008,63.0647723 C86.2145697,62.4419107 85.9227666,61.5609262 85.9227666,60.4224423 L85.9227666,52.9431148 C85.9227666,51.8052544 86.2145697,50.9242699 86.7988008,50.3007848 C87.3817821,49.6779232 88.2246994,49.3661806 89.3244285,49.3661806 Z M119.633086,49.3661806 C120.705321,49.3661806 121.523245,49.6710648 122.086856,50.2808333 C122.650467,50.8906017 122.932273,51.7510112 122.932273,52.8620617 L122.932273,54.3665313 L120.814045,54.3665313 L120.814045,52.7199071 C120.814045,51.8389226 120.440387,51.3987421 119.693696,51.3987421 C118.947005,51.3987421 118.573347,51.8389226 118.573347,52.7199071 L118.573347,60.666225 C118.573347,61.5341163 118.947005,61.9674385 119.693696,61.9674385 C120.440387,61.9674385 120.814045,61.5341163 120.814045,60.666225 L120.814045,58.4921324 L122.932273,58.4921324 L122.932273,60.5034954 C122.932273,61.6151694 122.650467,62.4749554 122.086856,63.0853473 C121.523245,63.6951158 120.705321,64 119.633086,64 C118.5596,64 117.741052,63.6951158 117.178066,63.0853473 C116.615079,62.4749554 116.332649,61.6151694 116.332649,60.5034954 L116.332649,52.8620617 C116.332649,51.7510112 116.615079,50.8906017 117.178066,50.2808333 C117.741052,49.6710648 118.5596,49.3661806 119.633086,49.3661806 Z M141.039874,49.36643 C142.112734,49.36643 142.924409,49.6744317 143.474274,50.2910584 C144.024763,50.9076852 144.299071,51.7917871 144.299071,52.9433642 L144.299071,53.5325576 L142.180842,53.5325576 L142.180842,52.8005861 C142.180842,52.3130207 142.085866,51.9576342 141.895288,51.7344265 C141.705959,51.5105954 141.427278,51.398368 141.060494,51.398368 C140.313802,51.398368 139.940145,51.8528887 139.940145,52.7600595 C139.940145,53.2750583 140.079485,53.7563888 140.357542,54.2034276 C140.636223,54.6504664 141.141723,55.192275 141.875293,55.8294768 C142.812562,56.6425014 143.456778,57.3807078 143.810441,58.0447195 C144.163479,58.7087311 144.339686,59.4874641 144.339686,60.3821652 C144.339686,61.5474589 144.051632,62.4415366 143.474274,63.0643982 C142.896916,63.6878833 142.058997,63.9996259 140.958644,63.9996259 C139.872036,63.9996259 139.050989,63.6916243 138.494251,63.0749975 C137.936888,62.4589942 137.658832,61.5748923 137.658832,60.4226917 L137.658832,59.6096671 L139.777685,59.6096671 L139.777685,60.5854214 C139.777685,61.5063089 140.164464,61.9676879 140.938649,61.9676879 C141.318555,61.9676879 141.606609,61.8554606 141.80406,61.6322529 C142.000887,61.4084217 142.099612,61.0461769 142.099612,60.5442713 C142.099612,59.9482196 141.964021,59.4238686 141.692213,58.9693479 C141.420405,58.5160742 140.918029,57.9699013 140.185084,57.3333229 C139.261562,56.5202983 138.616096,55.7858329 138.249311,55.1280561 C137.883151,54.4709027 137.700071,53.7295789 137.700071,52.9028376 C137.700071,51.7780705 137.985001,50.9076852 138.555486,50.2910584 C139.12597,49.6744317 139.953891,49.36643 141.039874,49.36643 Z M101.117585,49.5698109 L101.117585,60.4228164 C101.117585,61.5881101 100.849526,62.4553779 100.313408,63.0246199 C99.7760408,63.5932383 98.9587421,63.878171 97.8583883,63.878171 C97.4516135,63.878171 97.1048239,63.8507377 96.8198941,63.7964945 L96.8198941,61.7639329 C97.0373406,61.8181762 97.2810305,61.844986 97.5534634,61.844986 C98.001478,61.844986 98.3338961,61.7333822 98.5513425,61.5101745 C98.7681641,61.2869668 98.8768873,60.9446735 98.8768873,60.483918 L98.8768873,49.5698109 L101.117585,49.5698109 Z M112.014963,49.5696238 L112.014963,51.6021853 L108.144666,51.6021853 L108.144666,55.3618006 L111.220783,55.3618006 L111.220783,57.3943621 L108.144666,57.3943621 L108.144666,61.7643694 L112.014963,61.7643694 L112.014963,63.7963074 L105.904593,63.7963074 L105.904593,49.5696238 L112.014963,49.5696238 Z M78.0203387,49.5698109 C79.1744294,49.5698109 80.016097,49.8366625 80.5459664,50.3722362 C81.075211,50.9078099 81.3401458,51.7314338 81.3401458,52.8418608 L81.3401458,53.7153635 C81.3401458,55.1923997 80.8508913,56.1276274 79.8736321,56.520423 L79.8736321,56.5615731 C80.4166233,56.7236792 80.8002788,57.0559968 81.0239737,57.5566553 C81.2482934,58.0585608 81.3607657,58.7288074 81.3607657,59.5692653 L81.3607657,62.0694407 C81.3607657,62.4753295 81.3738874,62.8039061 81.4013807,63.0551706 C81.428249,63.3058117 81.4957324,63.5520883 81.6050805,63.7964945 L79.3237676,63.7964945 C79.2419127,63.5664284 79.1875511,63.3494556 79.1606828,63.1461995 C79.1366262,62.9683503 79.1235728,62.6659113 79.1206853,62.2388825 L79.1200678,59.4470622 C79.1200678,58.7967672 79.0144688,58.3428701 78.8045205,58.0853707 C78.5933226,57.8284948 78.230287,57.6994334 77.714789,57.6994334 L76.9399799,57.6994334 L76.9399799,63.7964945 L74.6999069,63.7964945 L74.6999069,49.5698109 L78.0203387,49.5698109 Z M133.788973,49.5694368 L133.788973,51.6019983 L131.446425,51.6019983 L131.446425,63.7967438 L129.205727,63.7967438 L129.205727,51.6019983 L126.863804,51.6019983 L126.863804,49.5694368 L133.788973,49.5694368 Z M66.9597515,49.5693121 C68.0732271,49.5693121 68.9080215,49.8679614 69.4653841,50.4640132 C70.0214971,51.060065 70.3008033,51.9335677 70.3008033,53.0857682 L70.3008033,54.4879862 C70.3008033,55.6401867 70.0214971,56.5136894 69.4653841,57.1097412 C68.9080215,57.705793 68.0732271,58.0044423 66.9597515,58.0044423 L65.9006375,58.0044423 L65.9006375,63.7966192 L63.6605644,63.7966192 L63.6605644,49.5693121 L66.9597515,49.5693121 Z M89.3244285,51.3987421 C88.5502442,51.3987421 88.1628397,51.866356 88.1628397,52.8009602 L88.1628397,60.5652204 C88.1628397,61.4998246 88.5502442,61.9674385 89.3244285,61.9674385 C90.0986127,61.9674385 90.4853924,61.4998246 90.4853924,60.5652204 L90.4853924,52.8009602 C90.4853924,51.866356 90.0986127,51.3987421 89.3244285,51.3987421 Z M208,0 L208,58.0096796 L153.499679,58.0096796 L153.499679,54.6765281 L204.659573,54.6765281 L204.659573,3.33315148 L3.34042694,3.33315148 L3.34042694,54.6765281 L54.5003214,54.6765281 L54.5003214,58.0096796 L0,58.0096796 L0,0 L208,0 Z M66.9597515,51.6018736 L65.9006375,51.6018736 L65.9006375,55.9718808 L66.9597515,55.9718808 C67.3265361,55.9718808 67.6014684,55.8702527 67.7845483,55.6669966 C67.968253,55.4637404 68.0601054,55.1183297 68.0601054,54.6301408 L68.0601054,52.9436136 C68.0601054,52.4554247 67.968253,52.110014 67.7845483,51.9067578 C67.6014684,51.7035016 67.3265361,51.6018736 66.9597515,51.6018736 Z M77.958479,51.6017489 L76.9399799,51.6017489 L76.9399799,55.6668719 L77.755404,55.6668719 C78.2034186,55.6668719 78.5395858,55.5515271 78.7632807,55.3208377 C78.9876004,55.0907716 79.0994479,54.7048343 79.0994479,54.1630258 L79.0994479,53.0650685 C79.0994479,52.5506932 79.0082203,52.1778491 78.8245156,51.9471596 C78.6414357,51.7170936 78.3527568,51.6017489 77.958479,51.6017489 Z M21.8381192,15.3213988 L23.7588959,36.3546695 L23.8370017,36.3546695 L25.8739998,15.3213988 L30.5759663,15.3213988 L32.6135892,36.3546695 L32.6923198,36.3546695 L34.6118468,15.3213988 L38.3340547,15.3213988 L35.5522401,42.6886549 L30.1841878,42.6886549 L28.2252955,24.2353656 L28.1465648,24.2353656 L26.1876725,42.6886549 L20.467207,42.6886549 L17.6853924,15.3213988 L21.8381192,15.3213988 Z M71.6765268,15.3213988 L71.6765268,19.231274 L64.5845242,19.231274 L64.5845242,26.8552501 L70.1487782,26.8552501 L70.1487782,30.7645019 L64.5845242,30.7645019 L64.5845242,42.6886549 L60.2749611,42.6886549 L60.2749611,15.3213988 L71.6765268,15.3213988 Z M84.1748848,15.3212741 L84.1748848,42.6885302 L79.8653216,42.6885302 L79.8653216,15.3212741 L84.1748848,15.3212741 Z M99.6514465,15.3213988 L102.393271,34.908184 L102.472001,34.908184 L105.215076,15.3213988 L111.366685,15.3213988 L111.366685,42.6886549 L107.291439,42.6886549 L107.291439,21.9677502 L107.212708,21.9677502 L104.078481,42.6886549 L100.473744,42.6886549 L97.3395161,21.9677502 L97.2614103,21.9677502 L97.2614103,42.6886549 L93.4998372,42.6886549 L93.4998372,15.3213988 L99.6514465,15.3213988 Z M132.445616,15.3213988 L132.445616,19.231274 L125.000576,19.231274 L125.000576,26.4637015 L130.917243,26.4637015 L130.917243,30.3735767 L125.000576,30.3735767 L125.000576,38.7787797 L132.445616,38.7787797 L132.445616,42.6886549 L120.691012,42.6886549 L120.691012,15.3213988 L132.445616,15.3213988 Z M147.608193,15.3213988 C149.74954,15.3213988 151.356019,15.8950051 152.42763,17.0415943 C153.498616,18.1888069 154.033485,19.8697228 154.033485,22.0849654 L154.033485,35.9250883 C154.033485,38.1409544 153.498616,39.8218703 152.42763,40.9684594 C151.356019,42.1156721 149.74954,42.6886549 147.608193,42.6886549 L141.026064,42.6886549 L141.026064,15.3213988 L147.608193,15.3213988 Z M167.355015,15.3212741 L167.355015,42.6885302 L163.045452,42.6885302 L163.045452,15.3212741 L167.355015,15.3212741 Z M185.848083,15.3212117 L190.315107,42.6884679 L186.004919,42.6884679 L185.220738,37.2541715 L185.220738,37.3321071 L180.323819,37.3321071 L179.540262,42.6884679 L175.543747,42.6884679 L180.010771,15.3212117 L185.848083,15.3212117 Z M50.9493214,15.3212741 L50.9493214,42.6885302 L46.6397582,42.6885302 L46.6397582,15.3212741 L50.9493214,15.3212741 Z M147.530087,19.231274 L145.335628,19.231274 L145.335628,38.7787797 L147.530087,38.7787797 C148.234913,38.7787797 148.776655,38.5705357 149.155936,38.1534241 C149.533968,37.736936 149.723921,37.0585842 149.723921,36.1202391 L149.723921,21.8898146 C149.723921,20.9514695 149.533968,20.2737411 149.155936,19.8566296 C148.776655,19.4401415 148.234913,19.231274 147.530087,19.231274 Z M182.791961,20.0914964 L182.713855,20.0914964 L180.833069,33.6180063 L184.712113,33.6180063 L182.791961,20.0914964 Z" id="Combined-Shape"></path>
            </g>
        </g>
    </g>
</svg>